<svg style="display:none;">
    <symbol id="test" viewBox="0 0 107 20">
        <path fill="#FFF" d="M3.83.787h8.529v3.215H3.83v3.636h6.024l3.83 3.211v3.642l-3.83 3.212H.532v-3.215h9.323v-3.635H3.831L0 7.64V3.999L3.83.787zM37.905 5.72h4.343L45 7.309v5.671h-6.598v1.946H45v2.777h-7.096l-2.753-1.59V7.309l2.753-1.59zm.498 4.817h3.346v-2.04h-3.346v2.04zm11.405-4.699h6.407v2.777h-5.909v1.661H53.7l2.753 1.59v4.248l-2.753 1.59h-6.645v-2.777H53.2V13.1h-3.393l-2.753-1.59V7.427l2.753-1.59zm27.543.014h5.055l2.753 1.59v8.672l-2.753 1.59H77.35l-2.753-1.59V7.441l2.753-1.59zm.498 8.95h4.058V8.753h-4.058V14.8zm12.045-8.95h5.055l2.753 1.59v8.672l-2.753 1.59h-5.055l-2.753-1.59V7.441l2.753-1.59zm.499 8.95h4.058V8.753h-4.058V14.8zM61.519.769h13.694v3.217H70.27v13.717h-3.826V3.986h-4.924V.769zM16.925 5.72h5.401l3.261 2.726v9.258h-7.095l-2.753-1.59v-4.106l2.753-1.59h3.844V8.495h-5.41V5.72zm2.065 9.255h3.346v-2.065H18.99v2.065zM27.83.894h3.251v14.032h2.373v2.777h-2.84l-2.784-1.568V.893zm71.828 0h3.251v14.032h2.374v2.777h-2.84l-2.785-1.568V.893z"/>
    </symbol>
</svg>